<svg width="414" height="117" viewBox="0 0 414 117" fill="none" xmlns="http://www.w3.org/2000/svg">
<path d="M135.085 7.22294V93.4599C131.988 92.4411 128.814 91.495 125.64 90.6945C125.485 90.6217 125.253 90.6217 125.098 90.5489V12.8993C125.098 12.5354 124.866 12.1716 124.479 12.026C116.428 8.60564 108.997 8.53286 101.875 11.8077C101.565 11.9532 101.333 12.3171 101.333 12.6082V13.9181C101.333 14.282 101.565 14.6459 102.03 14.7914C106.055 16.1741 110.08 17.7024 114.106 19.5217L116.351 20.5405C116.66 20.6861 116.893 21.05 116.893 21.4138V88.9479C116.041 88.8024 115.19 88.6568 114.338 88.584C111.938 88.2929 109.616 88.0018 107.216 87.8563C107.139 87.8563 106.984 87.8563 106.906 87.8563V27.3813C106.906 27.0174 106.674 26.6535 106.287 26.508C104.584 25.7803 102.958 25.1981 101.255 24.5431L91.2692 21.4138C83.3732 19.3034 75.4771 18.2118 67.5811 18.0662C63.4008 18.139 59.2206 18.5029 55.0403 19.1578C54.421 19.2306 53.8792 18.794 53.8792 18.2118V10.6433C53.8792 10.2067 54.2662 9.77002 54.7307 9.69724C58.9884 9.11505 63.246 8.75119 67.4263 8.67841H67.6585C75.0901 8.82396 82.5216 9.77001 89.9532 11.4438C90.5725 11.5894 91.1918 11.1527 91.1918 10.5705V7.36849C91.1918 7.0774 91.3466 6.7863 91.6563 6.56798L93.5142 5.47637C105.513 -1.80101 118.596 -1.80102 132.298 5.33081L134.31 6.42242C134.852 6.56797 135.085 6.85907 135.085 7.22294Z" fill="url(#paint0_linear_808_6)"/>
<path d="M101.332 34.8773V87.5655C98.0036 87.5655 94.6749 87.6383 91.4236 87.9294H91.3462V32.403C91.3462 31.748 92.0429 31.3114 92.6622 31.5297L100.636 34.004C101.1 34.1495 101.332 34.5134 101.332 34.8773Z" fill="url(#paint1_linear_808_6)"/>
<path d="M44.2802 7.44172V99.064C44.0479 99.1367 43.8931 99.2095 43.6609 99.2823C40.487 100.301 37.3905 101.247 34.294 102.193V26.0718C34.294 25.4169 33.5973 24.9802 32.9006 25.1985C31.662 25.6352 30.4234 26.1446 29.2622 26.654C28.8751 26.7996 28.6429 27.1634 28.6429 27.5273V103.794C28.4107 103.867 28.1784 103.94 27.9462 104.013C24.8497 104.813 21.7532 105.541 18.6567 106.123V21.4871C18.6567 21.1232 18.889 20.7593 19.1986 20.6138L21.4436 19.595C25.469 17.7756 29.4944 16.1746 33.5199 14.8647C33.9069 14.7191 34.1392 14.3552 34.1392 13.9914V12.6814C34.1392 12.3176 33.9069 12.0265 33.5973 11.8809C26.5528 8.6061 19.1212 8.60611 10.9929 12.0993C10.6059 12.2448 10.3736 12.6087 10.3736 12.9725V107.287C9.98656 107.287 9.67691 107.36 9.28985 107.36C6.34819 107.651 3.32911 107.724 0.387451 107.578V7.29618C0.387451 6.93231 0.619687 6.64121 0.929336 6.49566L3.01946 5.40406C16.7214 -1.72778 29.8041 -1.72777 41.803 5.54961L43.6609 6.64122C44.1253 6.85954 44.2802 7.15062 44.2802 7.44172Z" fill="url(#paint2_linear_808_6)"/>
<path d="M139.265 101.829L135.007 104.813L132.762 106.414L130.13 108.233C127.808 107.287 125.485 106.486 123.163 105.686C121.924 105.249 120.608 104.885 119.37 104.521L115.422 103.503H115.344L111.241 102.702C109.461 102.411 107.68 102.12 105.9 101.974C104.894 101.829 103.887 101.756 102.881 101.683C102.107 101.61 101.333 101.538 100.481 101.538C97.3071 101.392 94.1332 101.319 90.8819 101.465C89.1788 101.538 87.4758 101.683 85.8501 101.829C80.1216 102.338 74.4705 103.284 68.8194 104.594C61.0008 106.268 53.2596 108.524 45.441 110.707C41.88 111.726 38.319 112.672 34.6807 113.545C31.1197 114.419 27.5587 115.219 23.9204 115.801C21.598 116.165 19.2756 116.529 16.8759 116.675C13.1601 117.039 9.36687 117.111 5.57368 116.82C4.64473 116.747 3.71578 116.675 2.78684 116.602L0 112.235C1.16118 112.381 2.32237 112.527 3.48355 112.599C3.71578 112.599 3.94802 112.599 4.18026 112.672C7.12192 112.818 10.141 112.745 13.0827 112.527C14.1664 112.454 15.2502 112.308 16.334 112.163C17.8822 111.944 19.4305 111.726 20.9013 111.435C24.1526 110.853 27.4039 110.052 30.5778 109.252C31.4293 109.033 32.3583 108.742 33.2098 108.524C34.0614 108.233 34.9903 108.015 35.8418 107.723C39.0157 106.777 42.1896 105.759 45.441 104.74C52.5629 102.484 59.7622 100.082 67.1164 98.1901C72.9223 96.6618 78.883 95.4247 84.9212 94.6242C86.9339 94.3331 88.8692 94.1875 90.8819 93.9692C94.0558 93.7509 97.2297 93.6053 100.481 93.6781C101.487 93.6781 102.416 93.6781 103.423 93.7509C104.274 93.7509 105.048 93.8237 105.9 93.8964C108.145 94.042 110.39 94.2603 112.635 94.5514C113.564 94.697 114.493 94.8425 115.422 94.9881C116.041 95.0608 116.583 95.2064 117.202 95.2791L121.769 96.2252C122.234 96.3707 122.776 96.4435 123.24 96.5891C126.492 97.3896 129.665 98.3357 132.839 99.4273C133.304 99.5728 133.846 99.7911 134.31 99.9367C135.858 100.519 137.561 101.101 139.265 101.829Z" fill="white"/>
<path d="M67.9677 44.8477L71.5286 55.1087H82.9856L73.6962 61.4401L77.2571 71.7012L67.9677 65.3699L58.6782 71.7012L62.2392 61.4401L52.9497 55.1087H64.4067L67.9677 44.8477Z" fill="url(#paint3_linear_808_6)"/>
<path d="M192.988 54.7443L184.628 43.3916H184.086H175.338V54.7443H165.275V13.9182H184.086C195.698 13.9182 202.974 19.5946 202.974 28.7641C202.974 34.8771 199.646 39.389 194.072 41.645L203.826 54.7443H192.988ZM183.544 21.6322H175.338V35.8959H183.544C189.659 35.8959 192.833 33.2033 192.833 28.7641C192.833 24.2521 189.659 21.6322 183.544 21.6322Z" fill="white"/>
<path d="M205.297 39.0249C205.297 29.5643 213.038 22.8691 223.644 22.8691C234.249 22.8691 241.913 29.5643 241.913 39.0249C241.913 48.4855 234.249 55.1807 223.644 55.1807C213.038 55.1807 205.297 48.4855 205.297 39.0249ZM232.159 39.0249C232.159 33.5669 228.521 30.2921 223.644 30.2921C218.767 30.2921 215.051 33.5669 215.051 39.0249C215.051 44.483 218.767 47.7578 223.644 47.7578C228.521 47.7578 232.159 44.483 232.159 39.0249Z" fill="white"/>
<path d="M266.685 22.8691V31.2381C265.911 31.1654 265.292 31.0926 264.517 31.0926C259.176 31.0926 255.615 33.858 255.615 39.8254V54.6713H245.938V23.3058H255.228V27.4539C257.55 24.4702 261.498 22.8691 266.685 22.8691Z" fill="white"/>
<path d="M299.275 36.8417V54.7441H290.218V50.8143C288.438 53.6525 284.954 55.1807 280.077 55.1807C272.259 55.1807 267.614 51.1054 267.614 45.6473C267.614 40.1165 271.794 36.2595 281.935 36.2595H289.599C289.599 32.3297 287.122 30.0737 281.935 30.0737C278.374 30.0737 274.736 31.1654 272.336 32.9847L268.852 26.6534C272.491 24.1791 277.91 22.8691 283.251 22.8691C293.392 22.8691 299.275 27.3084 299.275 36.8417ZM289.599 44.8468V41.6448H282.941C278.374 41.6448 276.981 43.2458 276.981 45.2835C276.981 47.5395 278.993 49.0677 282.477 49.0677C285.728 49.0677 288.515 47.685 289.599 44.8468Z" fill="white"/>
<path d="M304.385 13.9184C304.385 11.0802 306.785 8.82422 310.423 8.82422C314.062 8.82422 316.461 10.9346 316.461 13.7001C316.461 16.7565 314.062 18.9398 310.423 18.9398C306.785 18.9398 304.385 16.7566 304.385 13.9184ZM305.546 23.3062H315.223V54.6717H305.546V23.3062Z" fill="white"/>
<path d="M378.159 36.7689V54.7441H368.482V38.1516C368.482 33.0575 366.082 30.7287 362.134 30.7287C357.799 30.7287 354.78 33.3486 354.78 38.9522V54.6713H345.104V38.1516C345.104 33.0575 342.781 30.7287 338.756 30.7287C334.498 30.7287 331.402 33.3486 331.402 38.9522V54.6713H321.725V23.3058H331.015V26.9445C333.492 24.2518 337.208 22.8691 341.465 22.8691C346.11 22.8691 350.058 24.5429 352.458 28.0361C355.167 24.834 359.502 22.8691 364.457 22.8691C372.507 22.8691 378.159 27.1628 378.159 36.7689Z" fill="white"/>
<path d="M413.923 36.8417V54.7441H404.866V50.8143C403.086 53.6525 399.602 55.1807 394.648 55.1807C386.829 55.1807 382.184 51.1054 382.184 45.6473C382.184 40.1165 386.365 36.2595 396.506 36.2595H404.169C404.169 32.3297 401.692 30.0737 396.506 30.0737C392.945 30.0737 389.306 31.1654 386.906 32.9847L383.423 26.6534C387.061 24.1791 392.48 22.8691 397.822 22.8691C408.04 22.8691 413.923 27.3084 413.923 36.8417ZM404.247 44.8468V41.6448H397.589C393.099 41.6448 391.629 43.2458 391.629 45.2835C391.629 47.5395 393.719 49.0677 397.125 49.0677C400.376 49.0677 403.163 47.685 404.247 44.8468Z" fill="white"/>
<path d="M177.351 78.9773H169.223L167.52 82.5432H165.275L172.164 68.2068H174.332L181.222 82.5432H178.899L177.351 78.9773ZM176.577 77.3763L173.248 70.3172L169.919 77.3763H176.577Z" fill="white"/>
<path d="M181.687 81.4517L182.538 79.9234C183.545 80.5784 185.093 81.015 186.564 81.015C188.499 81.015 189.273 80.4328 189.273 79.5595C189.273 77.0852 181.996 79.1957 181.996 74.902C181.996 72.9371 183.854 71.6272 186.796 71.6272C188.267 71.6272 189.97 71.9911 190.976 72.646L190.125 74.1743C189.041 73.5193 187.957 73.301 186.796 73.301C184.938 73.301 184.087 73.956 184.087 74.8292C184.087 77.3763 191.441 75.2659 191.441 79.5595C191.441 81.5244 189.505 82.7616 186.409 82.7616C184.551 82.6888 182.616 82.1066 181.687 81.4517Z" fill="white"/>
<path d="M192.601 81.4517L193.453 79.9234C194.459 80.5784 196.007 81.015 197.478 81.015C199.414 81.015 200.188 80.4328 200.188 79.5595C200.188 77.0852 192.911 79.1957 192.911 74.902C192.911 72.9371 194.769 71.6272 197.711 71.6272C199.181 71.6272 200.884 71.9911 201.891 72.646L201.039 74.1743C199.955 73.5193 198.872 73.301 197.711 73.301C195.853 73.301 195.001 73.956 195.001 74.8292C195.001 77.3763 202.355 75.2659 202.355 79.5595C202.355 81.5244 200.42 82.7616 197.323 82.7616C195.466 82.6888 193.53 82.1066 192.601 81.4517Z" fill="white"/>
<path d="M215.361 77.8134H205.994C206.226 79.7056 207.929 81.0155 210.174 81.0155C211.568 81.0155 212.652 80.5788 213.503 79.7056L214.664 81.0155C213.581 82.1799 212.032 82.762 210.097 82.762C206.381 82.762 203.904 80.4333 203.904 77.2313C203.904 74.0292 206.381 71.7004 209.71 71.7004C213.039 71.7004 215.438 73.9564 215.438 77.304C215.438 77.3768 215.438 77.5951 215.361 77.8134ZM205.994 76.358H213.426C213.194 74.5386 211.723 73.2287 209.71 73.2287C207.697 73.3015 206.226 74.5386 205.994 76.358Z" fill="white"/>
<path d="M237.501 76.2857V82.5443H235.411V76.5041C235.411 74.3936 234.327 73.302 232.392 73.302C230.301 73.302 228.908 74.5391 228.908 76.9407V82.5443H226.818V76.5041C226.818 74.3936 225.734 73.302 223.799 73.302C221.709 73.302 220.315 74.5391 220.315 76.9407V82.5443H218.225V71.701H220.238V73.302C221.089 72.2104 222.483 71.5554 224.186 71.5554C225.966 71.5554 227.437 72.2104 228.211 73.5931C229.063 72.3559 230.688 71.5554 232.624 71.5554C235.565 71.6282 237.501 73.0837 237.501 76.2857Z" fill="white"/>
<path d="M253.37 77.1587C253.37 80.5063 250.893 82.6895 247.564 82.6895C245.861 82.6895 244.39 82.1073 243.461 80.8701V82.6167H241.371V67.407H243.461V73.3744C244.39 72.21 245.861 71.6279 247.487 71.6279C250.893 71.6279 253.37 73.8111 253.37 77.1587ZM251.202 77.1587C251.202 74.8299 249.499 73.3744 247.332 73.3744C245.164 73.3744 243.461 74.9027 243.461 77.1587C243.461 79.4147 245.164 81.0157 247.332 81.0157C249.499 80.9429 251.202 79.4874 251.202 77.1587Z" fill="white"/>
<path d="M256.234 67.3337H258.324V82.5435H256.234V67.3337Z" fill="white"/>
<path d="M272.724 77.8134H263.357C263.589 79.7056 265.292 81.0155 267.537 81.0155C268.93 81.0155 270.014 80.5788 270.866 79.7056L272.027 81.0155C270.943 82.1799 269.395 82.762 267.46 82.762C263.744 82.762 261.267 80.4333 261.267 77.2313C261.267 74.0292 263.744 71.7004 267.073 71.7004C270.401 71.7004 272.801 73.9564 272.801 77.304C272.724 77.3768 272.724 77.5951 272.724 77.8134ZM263.357 76.358H270.788C270.556 74.5386 269.085 73.2287 267.073 73.2287C265.06 73.3015 263.589 74.5386 263.357 76.358Z" fill="white"/>
<path d="M275.278 68.3529C275.278 67.6252 275.897 67.043 276.671 67.043C277.445 67.043 278.065 67.6251 278.065 68.2801C278.065 69.0078 277.445 69.5901 276.671 69.5901C275.897 69.5901 275.278 69.0806 275.278 68.3529ZM275.665 71.7005H277.755V82.5438H275.665V71.7005Z" fill="white"/>
<path d="M290.914 75.9946V82.5443H288.902V81.0888C288.205 82.1076 286.889 82.617 285.109 82.617C282.476 82.617 280.851 81.3071 280.851 79.415C280.851 77.6684 282.012 76.2129 285.496 76.2129H288.824V75.8491C288.824 74.1753 287.818 73.2292 285.728 73.2292C284.334 73.2292 282.941 73.6659 282.089 74.3936L281.238 72.9381C282.399 72.0648 284.18 71.5554 286.037 71.5554C289.134 71.6282 290.914 73.0109 290.914 75.9946ZM288.824 79.2694V77.7412H285.573C283.483 77.7412 282.941 78.4689 282.941 79.415C282.941 80.5066 283.87 81.1616 285.496 81.1616C287.044 81.1616 288.282 80.5066 288.824 79.2694Z" fill="white"/>
<path d="M300.979 68.2068H303.146V80.7967H311.429V82.616H300.979V68.2068Z" fill="white"/>
<path d="M323.815 77.8134H314.448C314.681 79.7056 316.384 81.0155 318.629 81.0155C320.022 81.0155 321.106 80.5788 321.957 79.7056L323.118 81.0155C322.035 82.1799 320.486 82.762 318.551 82.762C314.835 82.762 312.358 80.4333 312.358 77.2313C312.358 74.0292 314.835 71.7004 318.164 71.7004C321.493 71.7004 323.893 73.9564 323.893 77.304C323.893 77.3768 323.815 77.5951 323.815 77.8134ZM314.448 76.358H321.88C321.648 74.5386 320.177 73.2287 318.164 73.2287C316.151 73.3015 314.681 74.5386 314.448 76.358Z" fill="white"/>
<path d="M337.827 71.7V81.0878C337.827 84.9448 335.736 86.6914 331.866 86.6914C329.776 86.6914 327.608 86.1092 326.37 85.0904L327.376 83.5621C328.46 84.4354 330.085 84.9448 331.788 84.9448C334.498 84.9448 335.736 83.7804 335.736 81.3061V80.4328C334.73 81.5244 333.259 82.1066 331.556 82.1066C328.227 82.1066 325.673 79.9962 325.673 76.8669C325.673 73.7376 328.227 71.6272 331.556 71.6272C333.259 71.6272 334.885 72.2094 335.814 73.4465V71.7728L337.827 71.7ZM335.736 76.8669C335.736 74.7565 334.111 73.3738 331.788 73.3738C329.466 73.3738 327.84 74.7565 327.84 76.8669C327.84 78.9774 329.466 80.4328 331.788 80.4328C334.111 80.3601 335.736 78.9046 335.736 76.8669Z" fill="white"/>
<path d="M341.465 68.3529C341.465 67.6252 342.085 67.043 342.859 67.043C343.633 67.043 344.252 67.6251 344.252 68.2801C344.252 69.0078 343.633 69.5901 342.859 69.5901C342.007 69.5901 341.465 69.0806 341.465 68.3529ZM341.775 71.7005H343.865V82.5438H341.775V71.7005Z" fill="white"/>
<path d="M346.419 81.4517L347.271 79.9234C348.277 80.5784 349.826 81.015 351.296 81.015C353.232 81.015 354.006 80.4328 354.006 79.5595C354.006 77.0852 346.729 79.1957 346.729 74.902C346.729 72.9371 348.587 71.6272 351.529 71.6272C352.999 71.6272 354.703 71.9911 355.709 72.646L354.857 74.1743C353.774 73.5193 352.69 73.301 351.529 73.301C349.671 73.301 348.819 73.956 348.819 74.8292C348.819 77.3763 356.173 75.2659 356.173 79.5595C356.173 81.5244 354.238 82.7616 351.142 82.7616C349.284 82.6888 347.426 82.1066 346.419 81.4517Z" fill="white"/>
<path d="M358.805 67.3337H360.896V82.5435H358.805V67.3337Z" fill="white"/>
<path d="M374.056 75.9946V82.5443H372.043V81.0888C371.347 82.1076 370.031 82.617 368.25 82.617C365.618 82.617 363.992 81.3071 363.992 79.415C363.992 77.6684 365.154 76.2129 368.637 76.2129H371.966V75.8491C371.966 74.1753 370.96 73.2292 368.869 73.2292C367.476 73.2292 366.083 73.6659 365.231 74.3936L364.379 72.9381C365.541 72.0648 367.321 71.5554 369.179 71.5554C372.276 71.6282 374.056 73.0109 374.056 75.9946ZM371.966 79.2694V77.7412H368.715C366.624 77.7412 366.083 78.4689 366.083 79.415C366.083 80.5066 367.012 81.1616 368.637 81.1616C370.185 81.1616 371.424 80.5066 371.966 79.2694Z" fill="white"/>
<path d="M384.429 81.9615C383.81 82.4709 382.803 82.6892 381.874 82.6892C379.552 82.6892 378.236 81.4521 378.236 79.2688V73.3014H376.301V71.7004H378.236V69.2988H380.326V71.7004H383.655V73.3014H380.326V79.1961C380.326 80.3605 380.946 81.0154 382.107 81.0154C382.726 81.0154 383.268 80.7971 383.732 80.506L384.429 81.9615Z" fill="white"/>
<path d="M386.596 68.3529C386.596 67.6252 387.216 67.043 387.99 67.043C388.764 67.043 389.383 67.6251 389.383 68.2801C389.383 69.0078 388.764 69.5901 387.99 69.5901C387.216 69.5901 386.596 69.0806 386.596 68.3529ZM386.983 71.7005H389.074V82.5438H386.983V71.7005Z" fill="white"/>
<path d="M403.24 71.7004L398.209 82.5437H396.041L391.009 71.7004H393.177L397.125 80.4333L401.15 71.7004H403.24Z" fill="white"/>
<path d="M414 75.9946V82.5443H411.987V81.0888C411.291 82.1076 409.975 82.617 408.194 82.617C405.562 82.617 403.937 81.3071 403.937 79.415C403.937 77.6684 405.098 76.2129 408.581 76.2129H411.91V75.8491C411.91 74.1753 410.904 73.2292 408.813 73.2292C407.42 73.2292 406.027 73.6659 405.175 74.3936L404.324 72.9381C405.485 72.0648 407.265 71.5554 409.123 71.5554C412.22 71.6282 414 73.0109 414 75.9946ZM411.91 79.2694V77.7412H408.659C406.569 77.7412 406.027 78.4689 406.027 79.415C406.027 80.5066 406.956 81.1616 408.581 81.1616C410.129 81.1616 411.368 80.5066 411.91 79.2694Z" fill="white"/>
<path d="M301.676 100.373C301.676 97.8257 303.766 95.8608 306.63 95.8608C309.417 95.8608 311.585 97.753 311.585 100.373C311.585 102.993 309.494 104.885 306.63 104.885C303.766 104.885 301.676 102.993 301.676 100.373ZM310.578 100.373C310.578 98.2624 308.875 96.7341 306.63 96.7341C304.385 96.7341 302.682 98.2624 302.682 100.373C302.682 102.483 304.385 104.012 306.63 104.012C308.875 104.084 310.578 102.483 310.578 100.373Z" fill="white"/>
<path d="M324.667 98.9906C324.667 100.883 323.196 102.047 320.796 102.047H318.242V104.812H317.235V95.9341H320.719C323.196 96.0069 324.667 97.0985 324.667 98.9906ZM323.661 98.9906C323.661 97.5351 322.654 96.7346 320.796 96.7346H318.319V101.174H320.796C322.654 101.174 323.661 100.373 323.661 98.9906Z" fill="white"/>
<path d="M325.828 101.465C325.828 99.5001 327.376 98.1174 329.466 98.1174C331.557 98.1174 333.027 99.5001 333.027 101.465C333.027 103.43 331.479 104.885 329.466 104.885C327.376 104.885 325.828 103.503 325.828 101.465ZM332.099 101.465C332.099 99.9368 331.015 98.8452 329.466 98.8452C327.918 98.8452 326.834 99.864 326.834 101.465C326.834 102.993 327.996 104.085 329.466 104.085C331.015 104.085 332.099 103.066 332.099 101.465Z" fill="white"/>
<path d="M341.466 95.425V104.813H340.537V103.503C339.918 104.376 338.989 104.886 337.828 104.886C335.815 104.886 334.344 103.503 334.344 101.465C334.344 99.4276 335.892 98.1177 337.828 98.1177C338.989 98.1177 339.918 98.5543 340.537 99.4276V95.425H341.466ZM340.537 101.465C340.537 99.937 339.376 98.8454 337.905 98.8454C336.357 98.8454 335.273 99.8642 335.273 101.465C335.273 102.994 336.434 104.085 337.905 104.085C339.376 104.085 340.537 103.066 340.537 101.465Z" fill="white"/>
<path d="M350.29 101.756H344.407C344.484 103.139 345.646 104.085 347.194 104.085C348.045 104.085 348.819 103.794 349.361 103.212L349.903 103.794C349.284 104.522 348.278 104.885 347.194 104.885C344.949 104.885 343.478 103.43 343.478 101.465C343.478 99.5001 344.949 98.1174 346.962 98.1174C348.974 98.1174 350.368 99.5001 350.368 101.465C350.29 101.538 350.29 101.683 350.29 101.756ZM344.407 101.101H349.439C349.284 99.7912 348.278 98.9179 346.884 98.9179C345.491 98.9179 344.484 99.7912 344.407 101.101Z" fill="white"/>
<path d="M355.864 98.1174V98.9907C355.787 98.9907 355.709 98.9907 355.632 98.9907C354.161 98.9907 353.232 99.864 353.232 101.465V104.885H352.303V98.263H353.232V99.5729C353.619 98.5541 354.548 98.1174 355.864 98.1174Z" fill="white"/>
<path d="M367.631 95.425V104.813H366.702V103.503C366.083 104.376 365.154 104.886 363.993 104.886C361.98 104.886 360.509 103.503 360.509 101.465C360.509 99.4276 362.057 98.1177 363.993 98.1177C365.154 98.1177 366.083 98.5543 366.702 99.4276V95.425H367.631ZM366.702 101.465C366.702 99.937 365.541 98.8454 364.07 98.8454C362.522 98.8454 361.438 99.8642 361.438 101.465C361.438 102.994 362.599 104.085 364.07 104.085C365.541 104.085 366.702 103.066 366.702 101.465Z" fill="white"/>
<path d="M369.566 101.465C369.566 99.5001 371.114 98.1174 373.205 98.1174C375.295 98.1174 376.766 99.5001 376.766 101.465C376.766 103.43 375.217 104.885 373.205 104.885C371.192 104.885 369.566 103.503 369.566 101.465ZM375.837 101.465C375.837 99.9368 374.753 98.8452 373.205 98.8452C371.656 98.8452 370.573 99.864 370.573 101.465C370.573 102.993 371.734 104.085 373.205 104.085C374.753 104.085 375.837 103.066 375.837 101.465Z" fill="white"/>
<path d="M389.848 98.9906C389.848 100.883 388.377 102.047 385.977 102.047H383.423V104.812H382.417V95.9341H385.9C388.377 96.0069 389.848 97.0985 389.848 98.9906ZM388.842 98.9906C388.842 97.5351 387.835 96.7346 385.977 96.7346H383.5V101.174H385.977C387.835 101.174 388.842 100.373 388.842 98.9906Z" fill="white"/>
<path d="M391.009 101.465C391.009 99.5001 392.558 98.1174 394.648 98.1174C396.738 98.1174 398.209 99.5001 398.209 101.465C398.209 103.43 396.66 104.885 394.648 104.885C392.558 104.885 391.009 103.503 391.009 101.465ZM397.28 101.465C397.28 99.9368 396.196 98.8452 394.648 98.8452C393.099 98.8452 392.016 99.864 392.016 101.465C392.016 102.993 393.177 104.085 394.648 104.085C396.196 104.085 397.28 103.066 397.28 101.465Z" fill="white"/>
<path d="M405.949 98.1899L402.775 104.812H401.769L398.673 98.1899H399.679L402.311 103.866L405.02 98.1899H405.949Z" fill="white"/>
<path d="M406.414 101.465C406.414 99.5001 407.963 98.1174 410.053 98.1174C412.143 98.1174 413.614 99.5001 413.614 101.465C413.614 103.43 412.065 104.885 410.053 104.885C408.04 104.885 406.414 103.503 406.414 101.465ZM412.607 101.465C412.607 99.9368 411.523 98.8452 409.975 98.8452C408.427 98.8452 407.343 99.864 407.343 101.465C407.343 102.993 408.504 104.085 409.975 104.085C411.523 104.085 412.607 103.066 412.607 101.465Z" fill="white"/>
<path d="M290.528 99.7185H165.275V100.883H290.528V99.7185Z" fill="white"/>
<defs>
<linearGradient id="paint0_linear_808_6" x1="47.0184" y1="-64.6704" x2="138.431" y2="103.752" gradientUnits="userSpaceOnUse">
<stop stop-color="white"/>
<stop offset="0.7173" stop-color="white"/>
</linearGradient>
<linearGradient id="paint1_linear_808_6" x1="14.2618" y1="-72.4365" x2="121.942" y2="125.959" gradientUnits="userSpaceOnUse">
<stop stop-color="white"/>
<stop offset="0.7173" stop-color="white"/>
</linearGradient>
<linearGradient id="paint2_linear_808_6" x1="-24.167" y1="-18.5681" x2="75.4686" y2="165.005" gradientUnits="userSpaceOnUse">
<stop stop-color="white"/>
<stop offset="0.7173" stop-color="white"/>
</linearGradient>
<linearGradient id="paint3_linear_808_6" x1="58.5517" y1="74.0732" x2="73.0074" y2="47.4394" gradientUnits="userSpaceOnUse">
<stop stop-color="#F28F24"/>
<stop offset="0.7097" stop-color="#FBB937"/>
</linearGradient>
</defs>
</svg>
